<?xml version="1.0" encoding="utf-8"?>
<!-- Generator: Adobe Illustrator 16.0.4, SVG Export Plug-In . SVG Version: 6.00 Build 0)  -->
<!DOCTYPE svg PUBLIC "-//W3C//DTD SVG 1.1//EN" "http://www.w3.org/Graphics/SVG/1.1/DTD/svg11.dtd">
<svg version="1.1" id="Layer_1" xmlns="http://www.w3.org/2000/svg" xmlns:xlink="http://www.w3.org/1999/xlink" x="0px" y="0px"
	 width="129px" height="49px" viewBox="0 0 129 49" enable-background="new 0 0 129 49" xml:space="preserve">
<g>
	<g>
		<path fill="#616262" d="M3.8,11.1c0.7-0.7,1.5-1.3,2.4-1.8c0.9-0.4,1.9-0.6,3-0.6c1.1,0,2.1,0.2,3,0.7c0.9,0.5,1.7,1.1,2.4,1.9
			l1.2-1.2C15,9.2,14,8.5,12.9,7.9c-1.1-0.5-2.4-0.8-3.7-0.8c-1.3,0-2.4,0.3-3.5,0.8c-1.2,0.5-2.2,1.2-3,2.1c-0.8,0.9-1.5,1.9-2,3.1
			C0.2,14.3,0,15.6,0,16.9c0,1.3,0.2,2.6,0.7,3.8c0.5,1.2,1.1,2.2,2,3.1C3.5,24.7,4.5,25.4,5.6,25.9s2.3,0.8,3.5,0.8
			c1.3,0,2.5-0.3,3.6-0.8c1.1-0.5,2.1-1.2,3-2.101l-1.2-1.1c-0.7,0.8-1.5,1.4-2.4,1.8s-1.9,0.7-3,0.7c-1,0-2-0.2-3-0.7
			c-0.9-0.4-1.7-1-2.4-1.8C3,22,2.5,21.1,2.1,20.1S1.5,18,1.5,16.9s0.2-2.2,0.6-3.2C2.6,12.7,3.1,11.8,3.8,11.1z M30.4,26.3
			c0.8,0.3,1.6,0.5,2.4,0.5c0.9,0,1.8-0.2,2.6-0.5c0.8-0.3,1.5-0.8,2.1-1.4v1.5h1.8c-0.1-0.101-0.1-0.2-0.1-0.601
			c0-0.3-0.1-0.8-0.1-1.4s0-1.2-0.1-1.9c0-0.7,0-1.4,0-2.1v-2.3c0-0.8,0-1.5,0-2.1c0-0.7,0-1.4,0-2v-0.4c-0.1-0.9-0.2-1.7-0.6-2.5
			c-0.3-0.8-0.7-1.5-1.2-2.1s-1.1-1.1-1.8-1.4C34.7,7.3,34,7.1,33.3,7l0,0c-1.7,0-3.3,0.2-4.8,0.6l0.4,1.5c1.3-0.4,2.8-0.6,4.4-0.6
			l0,0c0.6,0,1.2,0.2,1.7,0.5s0.9,0.7,1.3,1.2c0.4,0.5,0.6,1.1,0.8,1.8c0.2,0.7,0.3,1.4,0.3,2.2V15H33c-0.9,0-1.7,0.1-2.5,0.4
			c-0.8,0.3-1.5,0.7-2.1,1.2s-1.1,1.1-1.4,1.9c-0.3,0.7-0.5,1.5-0.5,2.3c0,0.8,0.2,1.5,0.5,2.2s0.8,1.3,1.3,1.8
			C29,25.6,29.7,26,30.4,26.3z M28.7,19.3c0.3-0.5,0.6-1,1-1.3c0.4-0.4,0.9-0.7,1.5-0.9c0.6-0.2,1.2-0.3,1.9-0.3h4.4V21
			c0,0.6-0.1,1.1-0.4,1.6c-0.2,0.5-0.6,0.9-1,1.3s-0.9,0.7-1.5,0.9c-0.6,0.2-1.2,0.3-1.8,0.3c-0.6,0-1.2-0.1-1.8-0.3
			c-0.6-0.2-1-0.5-1.4-0.9s-0.7-0.8-1-1.3c-0.2-0.5-0.3-1-0.3-1.6S28.4,19.8,28.7,19.3z M52.5,26.4V0h-1.6v26.4H52.5z M66.4,26.4V0
			H64.8v26.4H66.4z M78.6,7.3V26.4H80.2V7.3H78.6z M79.4,2.6c0.3,0,0.5-0.1,0.8-0.3c0.2-0.2,0.3-0.4,0.3-0.7c0-0.3-0.1-0.5-0.3-0.7
			c-0.2-0.2-0.5-0.3-0.8-0.3C79.1,0.6,78.8,0.7,78.6,0.9c-0.199,0.2-0.3,0.4-0.3,0.7c0,0.3,0.101,0.5,0.3,0.7
			C78.8,2.5,79.1,2.6,79.4,2.6z M104.9,11.2c-0.301-0.9-0.801-1.6-1.4-2.2s-1.3-1.1-2-1.5C100.7,7.2,99.9,7,99,7
			c-1.1,0-2.1,0.3-3,0.8S94.3,9,93.7,10V7.4h-1.8C91.9,7.5,92,7.7,92,8s0.1,0.7,0.1,1.1v17.3H93.7v-13c0.1-0.7,0.3-1.3,0.6-1.9
			s0.7-1.1,1.2-1.5s1-0.8,1.6-1C97.7,8.8,98.3,8.6,98.9,8.6c0.699,0,1.3,0.1,2,0.4c0.6,0.3,1.199,0.7,1.6,1.1
			c0.5,0.5,0.8,1.1,1.1,1.7c0.301,0.6,0.4,1.4,0.5,2.1v12.4h1.601L105.5,14C105.5,13,105.3,12.1,104.9,11.2z M128.9,25.8
			c0-0.3-0.101-0.8-0.101-1.4s0-1.2-0.1-1.9c0-0.7,0-1.4,0-2.1v-2.3c0-0.8,0-1.5,0-2.1c0-0.7,0-1.4,0-2v-0.4
			c-0.101-0.9-0.2-1.7-0.601-2.5c-0.3-0.8-0.699-1.5-1.199-2.1S125.8,7.9,125.1,7.6C124.4,7.3,123.7,7.1,123,7l0,0
			c-1.7,0-3.3,0.2-4.8,0.6l0.399,1.5c1.301-0.4,2.801-0.6,4.4-0.6l0,0c0.6,0,1.2,0.2,1.7,0.5s0.899,0.7,1.3,1.2s0.6,1.1,0.8,1.8
			s0.3,1.4,0.3,2.2V15H122.7c-0.9,0-1.7,0.1-2.5,0.4c-0.8,0.3-1.5,0.7-2.101,1.2c-0.6,0.5-1.1,1.1-1.399,1.9
			c-0.3,0.7-0.5,1.5-0.5,2.3c0,0.8,0.2,1.5,0.5,2.2s0.8,1.3,1.3,1.8s1.2,0.9,2,1.2s1.6,0.5,2.4,0.5c0.899,0,1.8-0.2,2.6-0.5
			s1.5-0.8,2.1-1.4v1.5h1.801C129,26.3,128.9,26.1,128.9,25.8z M127.2,21c0,0.6-0.101,1.1-0.4,1.6c-0.2,0.5-0.6,0.9-1,1.3
			c-0.399,0.4-0.899,0.7-1.5,0.9c-0.6,0.2-1.2,0.3-1.8,0.3s-1.2-0.1-1.8-0.3c-0.601-0.2-1-0.5-1.4-0.9c-0.399-0.4-0.7-0.8-1-1.3
			c-0.2-0.5-0.3-1-0.3-1.6s0.1-1.2,0.4-1.7c0.3-0.5,0.6-1,1-1.3c0.399-0.4,0.899-0.7,1.5-0.9c0.6-0.2,1.199-0.3,1.899-0.3h4.4V21z
			 M71,37.4c-0.8-2.101-2.6-3-4-2.101c-1.5,0.9-2.1,3-2.7,5.101C64.1,41,64,41.7,63.8,42.3c-0.2-0.6-0.3-1.3-0.5-1.899
			C62.7,38.3,62.1,36.3,60.6,35.3c-1.4-0.899-3.3,0-4,2.101c-0.8,2.199-0.5,4.1,0,5.199h-29v0.9h28.8c-0.4,0.9-0.6,2.1,0.1,3.7
			c0.8,1.6,2.6,2.2,4,1.6c1.5-0.7,2.1-2.2,2.7-3.8c0.2-0.5,0.3-1,0.5-1.4c0.2,0.5,0.3,1,0.5,1.4c0.6,1.6,1.2,3.1,2.7,3.8
			c1.399,0.7,3.3,0,4-1.6c0.699-1.5,0.5-2.8,0.1-3.7h27v-0.9H71C71.5,41.5,71.8,39.6,71,37.4z M62.9,44.9
			c-0.5,1.399-1,2.8-2.4,3.399c-1.3,0.601-3,0-3.6-1.399c-0.7-1.5-0.5-2.7-0.1-3.5h0.1c0.2,0.3,0.3,0.5,0.3,0.5
			c1.9,2.699,4.9,0.6,6.2-0.5C63.3,44,63.1,44.5,62.9,44.9z M57.2,43.1v-0.3c0.2-0.2,0.3-0.399,0.3-0.399c1.8-2,5-0.101,5.9,0.5
			c-0.8,0.699-4,3.399-5.9,0.6C57.5,43.6,57.3,43.4,57.2,43.1z M57.2,42.2c0,0-0.1,0.1-0.3,0.399c-0.4-1-0.8-2.8,0-4.899
			c0.7-1.9,2.4-2.7,3.6-1.9c1.4,0.9,1.9,2.7,2.4,4.601c0.2,0.699,0.4,1.5,0.6,2.3C62.3,41.9,59.1,40.1,57.2,42.2z M64.6,40.4
			c0.5-1.9,1-3.7,2.4-4.601c1.3-0.8,3,0,3.6,1.9c0.801,2.2,0.4,3.899,0,4.899C70.4,42.4,70.3,42.2,70.3,42.2
			C68.4,40.1,65.2,41.9,64,42.6C64.2,41.9,64.4,41.1,64.6,40.4z M70.4,43c-0.2,0.4-0.4,0.6-0.4,0.6c-1.8,2.7-5,0.101-5.9-0.6
			c0.8-0.6,4-2.5,5.9-0.5C70,42.5,70.2,42.7,70.4,43z M70.7,47c-0.7,1.4-2.4,2-3.601,1.4C65.7,47.8,65.2,46.4,64.7,45
			c-0.2-0.4-0.3-0.9-0.5-1.4c1.2,1.101,4.3,3.2,6.2,0.5c0,0,0.199-0.199,0.399-0.6C71.1,44.2,71.4,45.5,70.7,47z"/>
	</g>
</g>
</svg>
